<svg xmlns="http://www.w3.org/2000/svg" width="154.99" height="70" viewBox="0 0 154.99 70"><defs><clipPath id="a"><path fill="#fff" d="M27 465v-70h155v70zm149.88-63.13L32.82 398c-1.65-.05-2.9 1.94-2.82 4.43l1.96 55.41c.09 2.35 1.44 4.2 3.03 4.16l139.72-3.87c1.23-.03 2.28-1.72 2.37-3.78l1.92-48.5c.09-2.16-.86-3.95-2.12-3.98z"/></clipPath></defs><path fill="none" d="M149.88 6.87L5.8 3C4.17 2.95 2.91 4.94 3 7.43l1.96 55.41C5.05 65.19 6.4 67.04 8 67l139.72-3.87c1.22-.03 2.28-1.72 2.36-3.78l1.93-48.5c.09-2.16-.86-3.95-2.12-3.98z"/><path fill="none" stroke="#f5f8f7" stroke-linecap="round" stroke-linejoin="round" stroke-miterlimit="50" stroke-width="4" d="M176.88 401.87L32.82 398c-1.65-.05-2.9 1.94-2.82 4.43l1.96 55.41c.09 2.35 1.44 4.2 3.03 4.16l139.72-3.87c1.23-.03 2.28-1.72 2.37-3.78l1.92-48.5c.09-2.16-.86-3.95-2.12-3.98z" clip-path="url(&quot;#a&quot;)" transform="translate(-27 -395)"/></svg>