<svg xmlns="http://www.w3.org/2000/svg" width="154.99" height="70" viewBox="0 0 154.99 70"><defs><clipPath id="a"><path fill="#fff" d="M1395 465v-70h155v70zm3-59.14l1.92 48.49c.08 2.06 1.14 3.75 2.37 3.78l139.72 3.87c1.59.05 2.94-1.81 3.02-4.16l1.97-55.41c.09-2.5-1.17-4.48-2.82-4.43l-144.06 3.87c-1.26.03-2.21 1.82-2.12 3.99z"/></clipPath></defs><path fill="#f5f8f7" d="M5.12 6.87L149.18 3c1.65-.05 2.9 1.94 2.82 4.43l-1.97 55.41c-.08 2.35-1.43 4.2-3.02 4.16L7.29 63.13c-1.23-.03-2.3-1.72-2.37-3.78L3 10.85c-.1-2.16.86-3.95 2.12-3.98z"/><path fill="none" stroke="#f5f8f7" stroke-linecap="round" stroke-linejoin="round" stroke-miterlimit="50" stroke-width="4" d="M1400.12 401.87l144.06-3.87c1.65-.05 2.91 1.94 2.82 4.43l-1.97 55.41c-.08 2.35-1.43 4.2-3.02 4.16l-139.72-3.87c-1.23-.03-2.29-1.72-2.37-3.78l-1.92-48.5c-.09-2.16.86-3.95 2.12-3.98z" clip-path="url(&quot;#a&quot;)" transform="translate(-1395 -395)"/></svg>